<?xml version="1.0" encoding="UTF-8" standalone="no"?>
<svg
   xmlns:dc="http://purl.org/dc/elements/1.1/"
   xmlns:cc="http://creativecommons.org/ns#"
   xmlns:rdf="http://www.w3.org/1999/02/22-rdf-syntax-ns#"
   xmlns:svg="http://www.w3.org/2000/svg"
   xmlns="http://www.w3.org/2000/svg"
   xmlns:sodipodi="http://sodipodi.sourceforge.net/DTD/sodipodi-0.dtd"
   xmlns:inkscape="http://www.inkscape.org/namespaces/inkscape"
   width="64"
   height="64"
   viewBox="0 0 16.933333 16.933334"
   version="1.1"
   id="svg4019"
   sodipodi:docname="icon.svg"
   inkscape:version="1.0.1 (0767f8302a, 2020-10-17)">
  <sodipodi:namedview
     pagecolor="#ffffff"
     bordercolor="#666666"
     borderopacity="1"
     objecttolerance="10"
     gridtolerance="10"
     guidetolerance="10"
     inkscape:pageopacity="0"
     inkscape:pageshadow="2"
     inkscape:window-width="1848"
     inkscape:window-height="1016"
     id="namedview4160"
     showgrid="false"
     inkscape:zoom="5.2578125"
     inkscape:cx="-16.681457"
     inkscape:cy="50.909022"
     inkscape:window-x="72"
     inkscape:window-y="27"
     inkscape:window-maximized="1"
     inkscape:current-layer="svg4019" />
  <defs
     id="defs4013" />
  <metadata
     id="metadata4016">
    <rdf:RDF>
      <cc:Work
         rdf:about="">
        <dc:format>image/svg+xml</dc:format>
        <dc:type
           rdf:resource="http://purl.org/dc/dcmitype/StillImage" />
        <dc:title />
      </cc:Work>
    </rdf:RDF>
  </metadata>
  <path
     id="path4162"
     style="fill:#9ea2a9;stroke-width:1.90361;stroke-dasharray:1.90361, 5.71083"
     d="M 32 0 A 32.000002 32.000002 0 0 0 0 32 A 32.000002 32.000002 0 0 0 32 64 A 32.000002 32.000002 0 0 0 64 32 A 32.000002 32.000002 0 0 0 32 0 z M 47.521484 8.2539062 C 47.578253 8.2539062 47.599609 14.16035 47.599609 27.845703 C 47.599609 46.412682 47.594672 47.4468 47.470703 47.556641 C 47.399535 47.620741 47.075482 47.85068 46.75 48.070312 C 46.424772 48.289827 45.012153 49.262935 43.611328 50.232422 C 42.210446 51.201931 40.881566 52.122871 40.658203 52.277344 C 40.434493 52.4317 40.210912 52.558594 40.160156 52.558594 C 40.086909 52.5587 40.068359 48.58837 40.068359 32.957031 L 40.068359 13.355469 L 40.583984 13.001953 C 40.868091 12.807032 41.315211 12.497236 41.576172 12.314453 C 41.837035 12.131566 42.268873 11.833121 42.537109 11.650391 C 42.805531 11.467503 43.190234 11.20077 43.390625 11.058594 C 43.591053 10.916261 43.963621 10.657643 44.21875 10.482422 C 44.474095 10.307124 45.305173 9.7321713 46.064453 9.2070312 C 46.823685 8.6818651 47.478625 8.2539062 47.521484 8.2539062 z M 34.417969 17.289062 C 34.518701 17.248769 34.530605 18.837396 34.529297 32.335938 C 34.528721 40.635405 34.502484 47.460736 34.472656 47.503906 C 34.441248 47.548656 33.886402 47.944491 33.236328 48.386719 C 32.586464 48.828685 31.814679 49.357374 31.521484 49.5625 C 31.228473 49.76788 30.713319 50.125291 30.376953 50.357422 C 30.040534 50.589485 29.190196 51.18115 28.486328 51.669922 C 27.782461 52.158641 27.175851 52.558594 27.138672 52.558594 C 27.098378 52.558594 27.070313 46.568892 27.070312 37.435547 L 27.072266 37.435547 L 27.072266 22.3125 L 28.640625 21.232422 C 29.503701 20.63779 30.442315 19.989383 30.726562 19.792969 C 32.990779 18.228302 34.3226 17.325719 34.417969 17.289062 z M 21.398438 26.269531 C 21.429845 26.269531 21.460938 30.996269 21.460938 36.773438 L 21.460938 47.277344 L 21.111328 47.513672 C 20.619233 47.846951 19.533261 48.598813 17.078125 50.304688 C 13.970167 52.464143 14.006383 52.442211 14.005859 52.242188 L 14.001953 52.242188 C 14.001718 52.151403 14.000367 47.409206 14 41.703125 C 13.999765 32.37805 14.013452 31.320311 14.115234 31.253906 C 14.23062 31.179601 17.235069 29.109308 17.988281 28.583984 C 18.210937 28.428831 18.858429 27.982915 19.427734 27.59375 C 19.996856 27.204558 20.660125 26.747354 20.900391 26.578125 C 21.141101 26.409105 21.364817 26.269531 21.398438 26.269531 z "
     transform="scale(0.26458334)" />
</svg>
