<?xml version="1.0" encoding="utf-8"?>
<!-- Generator: Adobe Illustrator 25.0.0, SVG Export Plug-In . SVG Version: 6.00 Build 0)  -->
<svg version="1.1" id="Layer_1" xmlns="http://www.w3.org/2000/svg" xmlns:xlink="http://www.w3.org/1999/xlink" x="0px" y="0px"
	 viewBox="0 0 565.8 113.1" style="enable-background:new 0 0 565.8 113.1;" xml:space="preserve">
<style type="text/css">
	.st0{fill:#3C3C3B;}
	.st1{fill:#CADDA2;}
</style>
<g>
	<g>
		<g>
			<path class="st0" d="M5.5,69.3c3.5,3.7,9,7,16.1,7c7.3,0,10.2-3.6,10.2-6.9c0-4.6-5.4-5.9-11.6-7.5c-8.3-2.1-18-4.5-18-15.2
				c0-8.4,7.4-14.9,18.5-14.9c7.9,0,14.3,2.5,19,7.1l-5.1,6.6c-4-4-9.4-5.8-14.7-5.8c-5.3,0-8.6,2.5-8.6,6.3c0,4,5.2,5.3,11.2,6.8
				c8.4,2.1,18.4,4.7,18.4,15.8c0,8.4-5.9,15.7-19.6,15.7c-9.4,0-16.1-3.3-20.6-8.1L5.5,69.3z"/>
			<path class="st0" d="M80.5,73.5H56.5l-3.7,9.8H43l20-50.8h11.1l20,50.8h-9.8L80.5,73.5z M59,65.7h19L68.5,40L59,65.7z"/>
			<path class="st0" d="M99.6,32.5h8.9v43h22.4v7.8H99.6V32.5z"/>
			<path class="st0" d="M139,32.5h34.8v7.9h-25.9v13.2h25.4v7.8h-25.4v14.1h25.9v7.9H139V32.5z"/>
			<path class="st0" d="M184.7,69.3c3.5,3.7,9,7,16.1,7c7.3,0,10.2-3.6,10.2-6.9c0-4.6-5.4-5.9-11.6-7.5
				c-8.3-2.1-18.1-4.5-18.1-15.2c0-8.4,7.4-14.9,18.5-14.9c7.9,0,14.3,2.5,19,7.1l-5.1,6.6c-4-4-9.4-5.8-14.7-5.8
				c-5.3,0-8.6,2.5-8.6,6.3c0,4,5.2,5.3,11.2,6.8c8.4,2.1,18.4,4.7,18.4,15.8c0,8.4-5.9,15.7-19.6,15.7c-9.4,0-16.1-3.3-20.6-8.1
				L184.7,69.3z"/>
			<path class="st0" d="M342,59.5c0-4-1.8-6.6-6-6.6c-3.6,0-6.9,2.5-8.5,4.9v25.7h-8v-24c0-4-1.8-6.6-6.1-6.6c-3.5,0-6.8,2.5-8.5,5
				v25.7h-8V46.7h8v5c1.5-2.3,6.4-5.9,12-5.9c5.5,0,8.8,2.7,10,6.8c2.1-3.3,7-6.8,12.5-6.8c6.8,0,10.6,3.7,10.6,11.1v26.6h-8
				L342,59.5L342,59.5z"/>
			<path class="st0" d="M382.8,79.5c-2.7,3.1-7,4.9-11.9,4.9c-6,0-12.8-4-12.8-12.2c0-8.5,6.8-12,12.8-12c5,0,9.2,1.6,11.9,4.7v-5.5
				c0-4.3-3.5-6.9-8.6-6.9c-4.1,0-7.7,1.5-10.9,4.7l-3.3-5.6c4.3-4,9.6-5.9,15.5-5.9c8.1,0,15.3,3.4,15.3,13.3v24.4h-8V79.5z
				 M382.8,69.6c-1.8-2.5-5.3-3.8-8.8-3.8c-4.5,0-7.9,2.6-7.9,6.6c0,4,3.4,6.6,7.9,6.6c3.5,0,6.9-1.3,8.8-3.8V69.6z"/>
			<path class="st0" d="M426,60.5c0-5.7-2.9-7.6-7.4-7.6c-4.1,0-7.6,2.4-9.5,5v25.7h-8V46.7h8v5c2.4-2.9,7.2-5.9,12.9-5.9
				c7.9,0,11.9,4.3,11.9,11.8v25.9h-8L426,60.5L426,60.5z"/>
			<path class="st0" d="M466.9,79.5c-2.7,3.1-7,4.9-11.9,4.9c-6,0-12.8-4-12.8-12.2c0-8.5,6.8-12,12.8-12c5,0,9.2,1.6,11.9,4.7v-5.5
				c0-4.3-3.5-6.9-8.6-6.9c-4.1,0-7.7,1.5-10.9,4.7l-3.3-5.6c4.3-4,9.6-5.9,15.5-5.9c8.1,0,15.3,3.4,15.3,13.3v24.4h-8V79.5z
				 M466.9,69.6c-1.8-2.5-5.3-3.8-8.8-3.8c-4.5,0-7.9,2.6-7.9,6.6c0,4,3.4,6.6,7.9,6.6c3.5,0,6.9-1.3,8.8-3.8V69.6z"/>
			<path class="st0" d="M488.5,87.2c3,3.4,6.8,4.7,11.6,4.7c5.3,0,10.9-2.4,10.9-10v-4.4c-2.8,3.7-7,6.1-11.8,6.1
				c-9.4,0-16.3-6.8-16.3-18.9c0-11.9,6.9-18.9,16.3-18.9c4.6,0,8.8,2.1,11.8,6v-5.1h8v34.9c0,13.3-9.8,16.8-18.9,16.8
				c-6.3,0-10.9-1.4-15.4-5.5L488.5,87.2z M511.1,57.8c-1.8-2.7-5.7-5-9.4-5c-6.3,0-10.4,4.7-10.4,11.8c0,7.1,4,11.8,10.4,11.8
				c3.7,0,7.7-2.2,9.4-5V57.8z"/>
			<path class="st0" d="M527.2,65.1c0-10.5,7.2-19.3,18.9-19.3c11.8,0,19,8.8,19,19.3c0,10.6-7.2,19.3-19,19.3
				C534.4,84.4,527.2,75.7,527.2,65.1z M556.7,65.1c0-6.5-3.8-12.2-10.7-12.2c-6.8,0-10.6,5.7-10.6,12.2c0,6.5,3.8,12.3,10.6,12.3
				C552.9,77.3,556.7,71.6,556.7,65.1z"/>
		</g>
		<polygon class="st1" points="229.6,90.6 242.4,81.8 242.4,45.6 229.6,54.5 		"/>
		<polygon class="st1" points="252,91 264.8,82.1 264.8,30.2 252,39 		"/>
		<polygon class="st1" points="274.4,23.5 274.4,91 287.3,82.1 287.3,14.7 		"/>
	</g>
</g>
</svg>
